<?xml version="1.0"?><svg xmlns="http://www.w3.org/2000/svg"  viewBox="0 0 50 50" width="150px" height="150px">    <path d="M 6 4 C 4.9 4 4 4.9 4 6 L 4 44 C 4 45.1 4.9 46 6 46 L 44 46 C 45.1 46 46 45.1 46 44 L 46 6 C 46 4.9 45.1 4 44 4 L 6 4 z M 18.580078 14 C 20.570078 14 22.260625 14.480313 23.390625 15.570312 C 24.410625 16.590312 24.949219 18.160781 24.949219 20.050781 C 24.949219 22.030781 24.470625 23.370938 23.640625 24.460938 C 22.490625 26.060938 20.470781 26.859375 18.550781 26.859375 C 18.140781 26.859375 17.820938 26.860078 17.460938 26.830078 L 17.460938 36 L 15 36 L 15 14.419922 C 15.99 14.159922 17.140078 14 18.580078 14 z M 18.980469 15.640625 C 18.400469 15.640625 17.919609 15.700781 17.599609 15.800781 L 17.599609 24.410156 C 17.889609 24.440156 18.179844 24.470703 18.589844 24.470703 C 20.989844 24.470703 22.619141 22.870078 22.619141 19.830078 C 22.619141 17.620078 21.730469 15.640625 18.980469 15.640625 z M 31.710938 20 C 32.980938 20 33.900312 20.390781 34.570312 20.800781 L 33.900391 22.669922 C 33.270391 22.249922 32.61 21.960938 31.75 21.960938 C 30.39 21.960938 29.689453 22.919219 29.689453 23.949219 C 29.689453 24.979219 30.089688 25.589141 31.679688 26.619141 C 33.539687 27.779141 35 29.219141 35 31.369141 C 35 34.489141 32.810391 36 30.150391 36 C 28.990391 36 27.7 35.649609 27 35.099609 L 27.630859 33.240234 C 28.200859 33.590234 29.190703 34.039062 30.220703 34.039062 C 31.650703 34.039062 32.580078 33.169062 32.580078 31.789062 C 32.580078 30.599062 32.149531 29.770234 30.519531 28.740234 C 28.429531 27.420234 27.300781 26.070547 27.300781 24.310547 C 27.300781 21.770547 29.220938 20 31.710938 20 z"/></svg>