<?xml version="1.0" encoding="iso-8859-1"?>
<!-- Generator: Adobe Illustrator 24.1.2, SVG Export Plug-In . SVG Version: 6.00 Build 0)  -->
<svg version="1.1" baseProfile="basic" id="Layer_1"
	 xmlns="http://www.w3.org/2000/svg" xmlns:xlink="http://www.w3.org/1999/xlink" x="0px" y="0px" viewBox="0 0 80 80"
	 xml:space="preserve">
<path style="fill:none;stroke:#000000;stroke-width:2;stroke-linecap:round;stroke-linejoin:round;stroke-miterlimit:10;" d="
	M24.236,47.129l-8.733,6.714c-0.843,0.648-2.046,0.524-2.738-0.284l-3.487-4.068c-0.71-0.828-0.625-2.072,0.19-2.796l7.32-6.506"/>
<path style="fill:none;stroke:#000000;stroke-width:2;stroke-linecap:round;stroke-linejoin:round;stroke-miterlimit:10;" d="
	M33.5,40L53,25v30L15.503,26.157c-0.843-0.648-2.046-0.524-2.738,0.284l-3.517,4.103c-0.698,0.814-0.629,2.034,0.155,2.765
	l41.037,37.276c0.936,0.85,2.304,1.022,3.421,0.431l13.542-7.169c0.982-0.52,1.596-1.54,1.596-2.651V18.806
	c0-1.111-0.614-2.131-1.596-2.651L53.876,8.993c-1.124-0.595-2.501-0.417-3.437,0.445L24.655,33.196"/>
<g>
	<path d="M52,20.989C52,20.439,52.45,20,53,20l0,0c0.55,0,1,0.439,1,0.989l0,0C54,21.55,53.55,22,53,22l0,0
		C52.45,22,52,21.55,52,20.989z M52,17c0-0.55,0.45-1,1-1l0,0c0.55,0,1,0.45,1,1l0,0c0,0.551-0.45,1-1,1l0,0
		C52.45,18,52,17.551,52,17z M52,12.99c0-0.55,0.45-0.99,1-0.99l0,0c0.55,0,1,0.44,1,0.99l0,0c0,0.56-0.45,1.01-1,1.01l0,0
		C52.45,14,52,13.55,52,12.99z"/>
</g>
<g>
	<path d="M52,66.989C52,66.439,52.45,66,53,66l0,0c0.55,0,1,0.439,1,0.989l0,0C54,67.55,53.55,68,53,68l0,0
		C52.45,68,52,67.55,52,66.989z M52,63c0-0.55,0.45-1,1-1l0,0c0.55,0,1,0.45,1,1l0,0c0,0.551-0.45,1-1,1l0,0
		C52.45,64,52,63.551,52,63z M52,58.99c0-0.55,0.45-0.99,1-0.99l0,0c0.55,0,1,0.44,1,0.99l0,0c0,0.56-0.45,1.01-1,1.01l0,0
		C52.45,60,52,59.55,52,58.99z"/>
</g>
</svg>