<?xml version="1.0" encoding="iso-8859-1"?>
<!-- Generator: Adobe Illustrator 24.2.3, SVG Export Plug-In . SVG Version: 6.00 Build 0)  -->
<svg version="1.1" id="Layer_1" xmlns="http://www.w3.org/2000/svg" xmlns:xlink="http://www.w3.org/1999/xlink" x="0px" y="0px"
	 viewBox="0 0 50 50" style="enable-background:new 0 0 50 50;" xml:space="preserve">
<g>
	<path d="M40.174,15.944L27.396,5.669c-0.625-0.502-1.409-0.729-2.204-0.645c-0.797,0.087-1.512,0.479-2.014,1.103
		c-1.037,1.289-0.832,3.181,0.458,4.218L26.938,13H9.961c-1.654,0-3,1.346-3,3s1.346,3,3,3h7.435L3.157,30.51
		c-0.647,0.523-1.052,1.267-1.14,2.094c-0.087,0.827,0.152,1.639,0.675,2.286c0.523,0.647,1.267,1.052,2.094,1.14
		c0.827,0.087,1.639-0.152,2.286-0.675l6.926-5.598C14.577,37.698,21.964,44,30.961,44c9.374,0,17-6.841,17-15.25
		C47.961,23.554,45.052,18.772,40.174,15.944z M30.961,35c-4.962,0-9-3.364-9-7.5s4.038-7.5,9-7.5s9,3.364,9,7.5
		S35.923,35,30.961,35z"/>
	<ellipse cx="30.961" cy="27" rx="6" ry="5"/>
</g>
</svg>